<mxfile host="app.diagrams.net" modified="2023-12-11T07:07:09.378Z" agent="Mozilla/5.0 (Windows NT 10.0; Win64; x64) AppleWebKit/537.36 (KHTML, like Gecko) Chrome/120.0.0.0 Safari/537.36" etag="DBKtuhImA4TzVyqDMfE7" version="22.1.7" type="github">
  <diagram id="C5RBs43oDa-KdzZeNtuy" name="Page-1">
    <mxGraphModel dx="1912" dy="1096" grid="0" gridSize="26" guides="1" tooltips="1" connect="1" arrows="1" fold="1" page="1" pageScale="1" pageWidth="827" pageHeight="1169" math="0" shadow="0">
      <root>
        <mxCell id="WIyWlLk6GJQsqaUBKTNV-0" />
        <mxCell id="WIyWlLk6GJQsqaUBKTNV-1" parent="WIyWlLk6GJQsqaUBKTNV-0" />
        <mxCell id="KCK892xzxqELIfKlLSQk-2" style="edgeStyle=orthogonalEdgeStyle;rounded=0;orthogonalLoop=1;jettySize=auto;html=1;" parent="WIyWlLk6GJQsqaUBKTNV-1" source="KCK892xzxqELIfKlLSQk-0" target="KCK892xzxqELIfKlLSQk-1" edge="1">
          <mxGeometry relative="1" as="geometry" />
        </mxCell>
        <mxCell id="KCK892xzxqELIfKlLSQk-0" value="" style="ellipse;whiteSpace=wrap;html=1;" parent="WIyWlLk6GJQsqaUBKTNV-1" vertex="1">
          <mxGeometry x="310" y="80" width="80" height="70" as="geometry" />
        </mxCell>
        <mxCell id="KCK892xzxqELIfKlLSQk-4" style="edgeStyle=orthogonalEdgeStyle;rounded=0;orthogonalLoop=1;jettySize=auto;html=1;entryX=0.5;entryY=0;entryDx=0;entryDy=0;" parent="WIyWlLk6GJQsqaUBKTNV-1" source="KCK892xzxqELIfKlLSQk-1" target="KCK892xzxqELIfKlLSQk-3" edge="1">
          <mxGeometry relative="1" as="geometry" />
        </mxCell>
        <mxCell id="KCK892xzxqELIfKlLSQk-1" value="&lt;font style=&quot;font-size: 24px;&quot;&gt;a,b,h,y&lt;/font&gt;" style="shape=card;whiteSpace=wrap;html=1;size=24;" parent="WIyWlLk6GJQsqaUBKTNV-1" vertex="1">
          <mxGeometry x="305" y="180" width="90" height="60" as="geometry" />
        </mxCell>
        <mxCell id="4bXlozwKFnJli3FdES3Q-0" style="edgeStyle=none;curved=1;rounded=0;orthogonalLoop=1;jettySize=auto;html=1;exitX=0.5;exitY=1;exitDx=0;exitDy=0;entryX=0.5;entryY=0;entryDx=0;entryDy=0;fontSize=12;startSize=8;endSize=8;" edge="1" parent="WIyWlLk6GJQsqaUBKTNV-1" source="KCK892xzxqELIfKlLSQk-3" target="KCK892xzxqELIfKlLSQk-5">
          <mxGeometry relative="1" as="geometry" />
        </mxCell>
        <mxCell id="KCK892xzxqELIfKlLSQk-3" value="&lt;font style=&quot;font-size: 24px;&quot;&gt;x=a&lt;/font&gt;" style="rounded=0;whiteSpace=wrap;html=1;" parent="WIyWlLk6GJQsqaUBKTNV-1" vertex="1">
          <mxGeometry x="310" y="280" width="80" height="40" as="geometry" />
        </mxCell>
        <mxCell id="4bXlozwKFnJli3FdES3Q-41" style="edgeStyle=none;curved=1;rounded=0;orthogonalLoop=1;jettySize=auto;html=1;entryX=0.5;entryY=0;entryDx=0;entryDy=0;fontSize=12;startSize=8;endSize=8;" edge="1" parent="WIyWlLk6GJQsqaUBKTNV-1" source="KCK892xzxqELIfKlLSQk-5" target="4bXlozwKFnJli3FdES3Q-40">
          <mxGeometry relative="1" as="geometry" />
        </mxCell>
        <mxCell id="4bXlozwKFnJli3FdES3Q-51" style="edgeStyle=none;curved=1;rounded=0;orthogonalLoop=1;jettySize=auto;html=1;entryX=0;entryY=0.5;entryDx=0;entryDy=0;fontSize=12;startSize=8;endSize=8;" edge="1" parent="WIyWlLk6GJQsqaUBKTNV-1" source="KCK892xzxqELIfKlLSQk-5" target="4bXlozwKFnJli3FdES3Q-47">
          <mxGeometry relative="1" as="geometry" />
        </mxCell>
        <mxCell id="KCK892xzxqELIfKlLSQk-5" value="&lt;font style=&quot;font-size: 24px;&quot;&gt;x&amp;lt;=b&lt;/font&gt;" style="rhombus;whiteSpace=wrap;html=1;" parent="WIyWlLk6GJQsqaUBKTNV-1" vertex="1">
          <mxGeometry x="310" y="360" width="80" height="80" as="geometry" />
        </mxCell>
        <mxCell id="4bXlozwKFnJli3FdES3Q-2" value="&lt;font style=&quot;font-size: 24px;&quot;&gt;u=x&lt;/font&gt;" style="rounded=0;whiteSpace=wrap;html=1;fontSize=16;" vertex="1" parent="WIyWlLk6GJQsqaUBKTNV-1">
          <mxGeometry x="427" y="561" width="80" height="37.5" as="geometry" />
        </mxCell>
        <mxCell id="4bXlozwKFnJli3FdES3Q-7" value="" style="endArrow=none;html=1;rounded=0;fontSize=12;startSize=8;endSize=8;curved=1;exitX=1;exitY=0.5;exitDx=0;exitDy=0;strokeWidth=1;" edge="1" parent="WIyWlLk6GJQsqaUBKTNV-1">
          <mxGeometry width="50" height="50" relative="1" as="geometry">
            <mxPoint x="390" y="512" as="sourcePoint" />
            <mxPoint x="468" y="512" as="targetPoint" />
          </mxGeometry>
        </mxCell>
        <mxCell id="4bXlozwKFnJli3FdES3Q-8" value="" style="endArrow=classic;html=1;rounded=0;fontSize=12;startSize=8;endSize=8;curved=1;entryX=0.5;entryY=0;entryDx=0;entryDy=0;strokeWidth=1;" edge="1" parent="WIyWlLk6GJQsqaUBKTNV-1" target="4bXlozwKFnJli3FdES3Q-2">
          <mxGeometry width="50" height="50" relative="1" as="geometry">
            <mxPoint x="467" y="511" as="sourcePoint" />
            <mxPoint x="687" y="459" as="targetPoint" />
          </mxGeometry>
        </mxCell>
        <mxCell id="4bXlozwKFnJli3FdES3Q-9" value="&lt;font style=&quot;font-size: 24px;&quot;&gt;u=x/3&lt;/font&gt;" style="rounded=0;whiteSpace=wrap;html=1;fontSize=16;" vertex="1" parent="WIyWlLk6GJQsqaUBKTNV-1">
          <mxGeometry x="192" y="561" width="80" height="37.5" as="geometry" />
        </mxCell>
        <mxCell id="4bXlozwKFnJli3FdES3Q-10" value="" style="endArrow=none;html=1;rounded=0;fontSize=12;startSize=8;endSize=8;curved=1;strokeWidth=1;" edge="1" parent="WIyWlLk6GJQsqaUBKTNV-1">
          <mxGeometry width="50" height="50" relative="1" as="geometry">
            <mxPoint x="311" y="512" as="sourcePoint" />
            <mxPoint x="233" y="512" as="targetPoint" />
          </mxGeometry>
        </mxCell>
        <mxCell id="4bXlozwKFnJli3FdES3Q-11" value="" style="endArrow=classic;html=1;rounded=0;fontSize=12;startSize=8;endSize=8;curved=1;entryX=0.5;entryY=0;entryDx=0;entryDy=0;strokeWidth=1;" edge="1" parent="WIyWlLk6GJQsqaUBKTNV-1">
          <mxGeometry width="50" height="50" relative="1" as="geometry">
            <mxPoint x="233" y="511" as="sourcePoint" />
            <mxPoint x="233" y="561" as="targetPoint" />
          </mxGeometry>
        </mxCell>
        <mxCell id="4bXlozwKFnJli3FdES3Q-12" value="&lt;font style=&quot;font-size: 26px;&quot;&gt;-&lt;/font&gt;" style="text;strokeColor=none;fillColor=none;html=1;align=center;verticalAlign=middle;whiteSpace=wrap;rounded=0;fontSize=16;" vertex="1" parent="WIyWlLk6GJQsqaUBKTNV-1">
          <mxGeometry x="272" y="485" width="60" height="30" as="geometry" />
        </mxCell>
        <mxCell id="4bXlozwKFnJli3FdES3Q-14" value="&lt;span style=&quot;font-size: 24px;&quot;&gt;+&lt;/span&gt;" style="text;html=1;align=center;verticalAlign=middle;resizable=0;points=[];autosize=1;strokeColor=none;fillColor=none;fontSize=16;" vertex="1" parent="WIyWlLk6GJQsqaUBKTNV-1">
          <mxGeometry x="384" y="477" width="26" height="52" as="geometry" />
        </mxCell>
        <mxCell id="4bXlozwKFnJli3FdES3Q-15" value="" style="endArrow=none;html=1;rounded=0;fontSize=12;startSize=8;endSize=8;curved=1;exitX=1;exitY=0.5;exitDx=0;exitDy=0;strokeWidth=1;" edge="1" parent="WIyWlLk6GJQsqaUBKTNV-1">
          <mxGeometry width="50" height="50" relative="1" as="geometry">
            <mxPoint x="390" y="636" as="sourcePoint" />
            <mxPoint x="468" y="636" as="targetPoint" />
          </mxGeometry>
        </mxCell>
        <mxCell id="4bXlozwKFnJli3FdES3Q-17" value="" style="endArrow=none;html=1;rounded=0;fontSize=12;startSize=8;endSize=8;curved=1;strokeWidth=1;" edge="1" parent="WIyWlLk6GJQsqaUBKTNV-1">
          <mxGeometry width="50" height="50" relative="1" as="geometry">
            <mxPoint x="309" y="636" as="sourcePoint" />
            <mxPoint x="231" y="636" as="targetPoint" />
          </mxGeometry>
        </mxCell>
        <mxCell id="4bXlozwKFnJli3FdES3Q-19" value="" style="endArrow=none;html=1;rounded=0;fontSize=12;startSize=8;endSize=8;curved=1;strokeWidth=1;" edge="1" parent="WIyWlLk6GJQsqaUBKTNV-1">
          <mxGeometry width="50" height="50" relative="1" as="geometry">
            <mxPoint x="231.76" y="598.5" as="sourcePoint" />
            <mxPoint x="231.76" y="636.5" as="targetPoint" />
          </mxGeometry>
        </mxCell>
        <mxCell id="4bXlozwKFnJli3FdES3Q-20" value="" style="endArrow=none;html=1;rounded=0;fontSize=12;startSize=8;endSize=8;curved=1;strokeWidth=1;" edge="1" parent="WIyWlLk6GJQsqaUBKTNV-1">
          <mxGeometry width="50" height="50" relative="1" as="geometry">
            <mxPoint x="309" y="636" as="sourcePoint" />
            <mxPoint x="411" y="636" as="targetPoint" />
          </mxGeometry>
        </mxCell>
        <mxCell id="4bXlozwKFnJli3FdES3Q-21" value="" style="endArrow=none;html=1;rounded=0;fontSize=12;startSize=8;endSize=8;curved=1;strokeWidth=1;" edge="1" parent="WIyWlLk6GJQsqaUBKTNV-1">
          <mxGeometry width="50" height="50" relative="1" as="geometry">
            <mxPoint x="467.76" y="598.5" as="sourcePoint" />
            <mxPoint x="467.76" y="636.5" as="targetPoint" />
          </mxGeometry>
        </mxCell>
        <mxCell id="4bXlozwKFnJli3FdES3Q-23" value="" style="endArrow=classic;html=1;rounded=0;fontSize=12;startSize=8;endSize=8;curved=1;strokeWidth=1;entryX=0.5;entryY=0;entryDx=0;entryDy=0;" edge="1" parent="WIyWlLk6GJQsqaUBKTNV-1" target="4bXlozwKFnJli3FdES3Q-24">
          <mxGeometry width="50" height="50" relative="1" as="geometry">
            <mxPoint x="350" y="635" as="sourcePoint" />
            <mxPoint x="350" y="684" as="targetPoint" />
          </mxGeometry>
        </mxCell>
        <mxCell id="4bXlozwKFnJli3FdES3Q-26" style="edgeStyle=none;curved=1;rounded=0;orthogonalLoop=1;jettySize=auto;html=1;entryX=0.5;entryY=0;entryDx=0;entryDy=0;fontSize=12;startSize=8;endSize=8;" edge="1" parent="WIyWlLk6GJQsqaUBKTNV-1" source="4bXlozwKFnJli3FdES3Q-24" target="4bXlozwKFnJli3FdES3Q-25">
          <mxGeometry relative="1" as="geometry" />
        </mxCell>
        <mxCell id="4bXlozwKFnJli3FdES3Q-24" value="&lt;font style=&quot;font-size: 24px;&quot;&gt;y = u + (1/3)*((x/u**2)-u)&lt;/font&gt;" style="rounded=0;whiteSpace=wrap;html=1;fontSize=16;" vertex="1" parent="WIyWlLk6GJQsqaUBKTNV-1">
          <mxGeometry x="213" y="671" width="273" height="39" as="geometry" />
        </mxCell>
        <mxCell id="4bXlozwKFnJli3FdES3Q-27" style="edgeStyle=none;curved=1;rounded=0;orthogonalLoop=1;jettySize=auto;html=1;fontSize=12;startSize=8;endSize=8;entryX=0;entryY=0.5;entryDx=0;entryDy=0;" edge="1" parent="WIyWlLk6GJQsqaUBKTNV-1" source="4bXlozwKFnJli3FdES3Q-25" target="4bXlozwKFnJli3FdES3Q-28">
          <mxGeometry relative="1" as="geometry">
            <mxPoint x="520" y="762" as="targetPoint" />
          </mxGeometry>
        </mxCell>
        <mxCell id="4bXlozwKFnJli3FdES3Q-38" style="edgeStyle=none;curved=1;rounded=0;orthogonalLoop=1;jettySize=auto;html=1;entryX=0.5;entryY=0;entryDx=0;entryDy=0;fontSize=12;startSize=8;endSize=8;" edge="1" parent="WIyWlLk6GJQsqaUBKTNV-1" source="4bXlozwKFnJli3FdES3Q-25" target="4bXlozwKFnJli3FdES3Q-37">
          <mxGeometry relative="1" as="geometry" />
        </mxCell>
        <mxCell id="4bXlozwKFnJli3FdES3Q-25" value="|y-a| &amp;lt; E" style="rhombus;whiteSpace=wrap;html=1;fontSize=16;" vertex="1" parent="WIyWlLk6GJQsqaUBKTNV-1">
          <mxGeometry x="296.5" y="736" width="106" height="52" as="geometry" />
        </mxCell>
        <mxCell id="4bXlozwKFnJli3FdES3Q-28" value="&lt;font style=&quot;font-size: 24px;&quot;&gt;u=y&lt;/font&gt;" style="rounded=0;whiteSpace=wrap;html=1;fontSize=16;" vertex="1" parent="WIyWlLk6GJQsqaUBKTNV-1">
          <mxGeometry x="529" y="746.25" width="72" height="31.5" as="geometry" />
        </mxCell>
        <mxCell id="4bXlozwKFnJli3FdES3Q-32" value="" style="endArrow=none;html=1;rounded=0;fontSize=12;startSize=8;endSize=8;curved=1;exitX=0.5;exitY=0;exitDx=0;exitDy=0;" edge="1" parent="WIyWlLk6GJQsqaUBKTNV-1" source="4bXlozwKFnJli3FdES3Q-28">
          <mxGeometry width="50" height="50" relative="1" as="geometry">
            <mxPoint x="494" y="734" as="sourcePoint" />
            <mxPoint x="565" y="658" as="targetPoint" />
          </mxGeometry>
        </mxCell>
        <mxCell id="4bXlozwKFnJli3FdES3Q-34" value="" style="endArrow=classic;html=1;rounded=0;fontSize=12;startSize=8;endSize=8;curved=1;" edge="1" parent="WIyWlLk6GJQsqaUBKTNV-1">
          <mxGeometry width="50" height="50" relative="1" as="geometry">
            <mxPoint x="565" y="658" as="sourcePoint" />
            <mxPoint x="351" y="658" as="targetPoint" />
          </mxGeometry>
        </mxCell>
        <mxCell id="4bXlozwKFnJli3FdES3Q-35" value="&lt;font style=&quot;font-size: 26px;&quot;&gt;-&lt;/font&gt;" style="text;strokeColor=none;fillColor=none;html=1;align=center;verticalAlign=middle;whiteSpace=wrap;rounded=0;fontSize=16;" vertex="1" parent="WIyWlLk6GJQsqaUBKTNV-1">
          <mxGeometry x="375" y="738" width="60" height="30" as="geometry" />
        </mxCell>
        <mxCell id="4bXlozwKFnJli3FdES3Q-36" value="x=x+h" style="rounded=0;whiteSpace=wrap;html=1;fontSize=16;" vertex="1" parent="WIyWlLk6GJQsqaUBKTNV-1">
          <mxGeometry x="313" y="883" width="73" height="36.5" as="geometry" />
        </mxCell>
        <mxCell id="4bXlozwKFnJli3FdES3Q-39" style="edgeStyle=none;curved=1;rounded=0;orthogonalLoop=1;jettySize=auto;html=1;entryX=0.5;entryY=0;entryDx=0;entryDy=0;fontSize=12;startSize=8;endSize=8;" edge="1" parent="WIyWlLk6GJQsqaUBKTNV-1" source="4bXlozwKFnJli3FdES3Q-37" target="4bXlozwKFnJli3FdES3Q-36">
          <mxGeometry relative="1" as="geometry" />
        </mxCell>
        <mxCell id="4bXlozwKFnJli3FdES3Q-37" value="x,y" style="shape=document;whiteSpace=wrap;html=1;boundedLbl=1;fontSize=16;" vertex="1" parent="WIyWlLk6GJQsqaUBKTNV-1">
          <mxGeometry x="326" y="810" width="47" height="31.33" as="geometry" />
        </mxCell>
        <mxCell id="4bXlozwKFnJli3FdES3Q-40" value="&lt;font style=&quot;font-size: 24px;&quot;&gt;x&amp;lt;1&lt;/font&gt;" style="rhombus;whiteSpace=wrap;html=1;fontSize=16;" vertex="1" parent="WIyWlLk6GJQsqaUBKTNV-1">
          <mxGeometry x="310" y="472" width="80" height="80" as="geometry" />
        </mxCell>
        <mxCell id="4bXlozwKFnJli3FdES3Q-42" value="" style="endArrow=none;html=1;rounded=0;fontSize=12;startSize=8;endSize=8;curved=1;exitX=0.5;exitY=1;exitDx=0;exitDy=0;" edge="1" parent="WIyWlLk6GJQsqaUBKTNV-1" source="4bXlozwKFnJli3FdES3Q-36">
          <mxGeometry width="50" height="50" relative="1" as="geometry">
            <mxPoint x="413" y="604" as="sourcePoint" />
            <mxPoint x="350" y="955" as="targetPoint" />
          </mxGeometry>
        </mxCell>
        <mxCell id="4bXlozwKFnJli3FdES3Q-44" value="" style="endArrow=none;html=1;rounded=0;fontSize=12;startSize=8;endSize=8;curved=1;" edge="1" parent="WIyWlLk6GJQsqaUBKTNV-1">
          <mxGeometry width="50" height="50" relative="1" as="geometry">
            <mxPoint x="350" y="955" as="sourcePoint" />
            <mxPoint x="102" y="955" as="targetPoint" />
          </mxGeometry>
        </mxCell>
        <mxCell id="4bXlozwKFnJli3FdES3Q-45" value="" style="endArrow=none;html=1;rounded=0;fontSize=12;startSize=8;endSize=8;curved=1;" edge="1" parent="WIyWlLk6GJQsqaUBKTNV-1">
          <mxGeometry width="50" height="50" relative="1" as="geometry">
            <mxPoint x="103" y="954" as="sourcePoint" />
            <mxPoint x="106" y="342" as="targetPoint" />
          </mxGeometry>
        </mxCell>
        <mxCell id="4bXlozwKFnJli3FdES3Q-46" value="" style="endArrow=classic;html=1;rounded=0;fontSize=12;startSize=8;endSize=8;curved=1;" edge="1" parent="WIyWlLk6GJQsqaUBKTNV-1">
          <mxGeometry width="50" height="50" relative="1" as="geometry">
            <mxPoint x="105" y="342" as="sourcePoint" />
            <mxPoint x="348" y="344" as="targetPoint" />
          </mxGeometry>
        </mxCell>
        <mxCell id="4bXlozwKFnJli3FdES3Q-50" value="" style="group" vertex="1" connectable="0" parent="WIyWlLk6GJQsqaUBKTNV-1">
          <mxGeometry x="544" y="375" width="51" height="51" as="geometry" />
        </mxCell>
        <mxCell id="4bXlozwKFnJli3FdES3Q-47" value="" style="ellipse;whiteSpace=wrap;html=1;aspect=fixed;fontSize=16;" vertex="1" parent="4bXlozwKFnJli3FdES3Q-50">
          <mxGeometry width="51" height="51" as="geometry" />
        </mxCell>
        <mxCell id="4bXlozwKFnJli3FdES3Q-48" value="" style="endArrow=none;html=1;rounded=0;fontSize=12;startSize=8;endSize=8;curved=1;entryX=1;entryY=0;entryDx=0;entryDy=0;exitX=0;exitY=1;exitDx=0;exitDy=0;" edge="1" parent="4bXlozwKFnJli3FdES3Q-50" source="4bXlozwKFnJli3FdES3Q-47" target="4bXlozwKFnJli3FdES3Q-47">
          <mxGeometry width="50" height="50" relative="1" as="geometry">
            <mxPoint x="-23.5875" y="150.45" as="sourcePoint" />
            <mxPoint x="8.2875" y="118.57499999999999" as="targetPoint" />
          </mxGeometry>
        </mxCell>
        <mxCell id="4bXlozwKFnJli3FdES3Q-49" value="" style="endArrow=none;html=1;rounded=0;fontSize=12;startSize=8;endSize=8;curved=1;entryX=0;entryY=0;entryDx=0;entryDy=0;exitX=1;exitY=1;exitDx=0;exitDy=0;" edge="1" parent="4bXlozwKFnJli3FdES3Q-50" source="4bXlozwKFnJli3FdES3Q-47" target="4bXlozwKFnJli3FdES3Q-47">
          <mxGeometry width="50" height="50" relative="1" as="geometry">
            <mxPoint x="66.3" y="86.0625" as="sourcePoint" />
            <mxPoint x="98.175" y="54.18749999999999" as="targetPoint" />
          </mxGeometry>
        </mxCell>
      </root>
    </mxGraphModel>
  </diagram>
</mxfile>
